<?xml version="1.0" ?><svg enable-background="new 0 0 256 256" id="Layer_1" version="1.1" viewBox="0 0 256 256" xml:space="preserve" xmlns="http://www.w3.org/2000/svg" xmlns:xlink="http://www.w3.org/1999/xlink"><g><path d="   M216.3,209.5c-4,4.5-71.5,17.7-86.8,11.3S102,143.3,78.8,119c-2.2-2.3-4.4-4.4-6.5-6.5C51.5,93,33.3,85,33.3,85   c0.5-22.3,9.8-39.4,28-51.5c0,0,80.7,112.3,96,117s53.3-9.5,61.5,3S220.3,205,216.3,209.5z" fill="none" stroke="#434A54" stroke-linecap="round" stroke-linejoin="round" stroke-miterlimit="10" stroke-width="8"/><path d="   M72.3,112.5c-0.1,0-7,0-8.5,6.2c-1.5,6.3,0,102.3,0,102.3h-11c0,0-1.7-75.1-1.5-87s-18-49-18-49S51.5,93,72.3,112.5z" fill="none" stroke="#434A54" stroke-linecap="round" stroke-linejoin="round" stroke-miterlimit="10" stroke-width="8"/></g></svg>