<?xml version="1.0" encoding="UTF-8"?>
<svg width="2539px" height="447px" viewBox="0 0 2539 447" version="1.1" xmlns="http://www.w3.org/2000/svg" xmlns:xlink="http://www.w3.org/1999/xlink">
    <!-- Generator: Sketch 3.8.1 (29687) - http://www.bohemiancoding.com/sketch -->
    <title>Logo wide</title>
    <desc>Created with Sketch.</desc>
    <defs>
			<style type="text/css">
				@font-face {
					font-family: Delicious;
					src: url('https://fonts.googleapis.com/css?family=Montserrat');
				}
  		</style>
		</defs>
    <g id="Page-1" stroke="none" stroke-width="1" fill="none" fill-rule="evenodd">
        <g id="Artboard-2" transform="translate(-358.000000, -311.000000)" fill="#F64763">
            <g id="Logo-wide" transform="translate(358.000000, 311.000000)">
                <g id="noun_18061_cc">
                    <g id="Group" transform="translate(-0.000000, 0.000000)">
                        <g>
                            <ellipse id="Oval" cx="213.07446" cy="219.34548" rx="26.3407136" ry="26.3233733"></ellipse>
                            <ellipse id="Oval" cx="397.968657" cy="219.34548" rx="26.3407136" ry="26.3233733"></ellipse>
                            <path d="M302.442385,330.613667 C302.442385,330.613667 347.671493,310.36676 347.671493,285.414333 C347.671493,260.461907 257.237239,260.461907 257.237239,285.414333 C257.237239,310.36676 302.442385,330.613667 302.442385,330.613667 Z" id="Shape"></path>
                            <path d="M587.493596,335.612533 L532.002573,326.752267 C535.339343,319.783787 538.184883,312.545907 540.61707,305.110467 L582.922761,311.881387 C583.70154,312.007107 584.468338,312.049013 585.235136,312.049013 C592.226178,312.049013 598.372545,306.99028 599.50477,299.872133 C600.774779,291.987693 595.395211,284.55824 587.505577,283.295053 L547.518254,276.90728 C549.195624,266.574293 550.076244,255.906053 550.076244,244.92052 C550.076244,203.941787 522.75307,113.052213 511.586573,84.9268533 C503.014009,63.36288 494.405502,49.3061867 484.443117,33.0224533 C479.806385,25.4553067 474.834178,17.3314 469.382723,7.60905333 C466.968507,3.31062667 462.541446,0.5388 457.617164,0.245453333 C452.531136,-0.12572 447.966291,2.18513333 445.054854,6.15429333 C426.957221,30.9331067 398.87923,58.5376267 387.515042,58.5376267 C382.872319,58.5376267 374.323718,57.4839733 364.421239,56.2626933 C346.916676,54.1074933 325.110854,51.4134933 302.49031,51.4134933 C283.853521,51.4134933 265.827775,53.77224 249.916714,55.8496133 C238.876019,57.2924 229.344958,58.5376267 222.761277,58.5376267 C198.894685,58.5376267 171.583493,21.9351467 163.891549,9.11170667 C161.291624,4.78334667 156.624939,2.10730667 151.562873,2.07737333 C146.285146,2.05342667 141.81016,4.63368 139.150329,8.93210667 C122.101052,36.4827467 110.844695,54.6822133 98.5998873,86.5252933 C87.3555117,115.764173 61.0028169,204.9236 61.0028169,244.914533 C61.0028169,255.3014 61.8175399,265.400907 63.3151925,275.21904 L12.8443005,283.289067 C4.95466667,284.54028 -0.424901408,291.97572 0.839117371,299.866147 C1.97134272,306.978307 8.12969014,312.043027 15.1147418,312.043027 C15.8695587,312.043027 16.6423474,311.995133 17.4211268,311.8754 L69.9288263,303.482093 C72.2891268,310.929507 75.0747606,318.167387 78.3336526,325.153827 L12.820338,335.612533 C4.93070423,336.87572 -0.44886385,344.299187 0.809164319,352.201587 C1.94738028,359.30776 8.09973709,364.378467 15.0847887,364.378467 C15.8455962,364.378467 16.618385,364.3186 17.3971643,364.21084 L93.7534836,352.004027 C134.54954,410.643427 210.576376,446.73704 305.515568,446.73704 C399.616075,446.73704 475.151681,411.260053 516.217315,353.536613 L582.928751,364.198867 C583.707531,364.324587 584.474329,364.37248 585.241127,364.37248 C592.232169,364.37248 598.378535,359.301773 599.510761,352.1956 C600.768789,344.299187 595.38323,336.87572 587.493596,335.612533 L587.493596,335.612533 Z M305.509577,417.78552 C235.94062,417.78552 165.994254,395.28164 125.383906,346.927333 L138.095981,344.90384 C145.991606,343.640653 151.365183,336.223173 150.101164,328.320773 C148.837146,320.436333 141.402798,315.060307 133.525146,316.323493 L107.603775,320.472253 C104.039362,313.659427 100.97816,306.475427 98.4321502,298.914267 L138.095981,292.58636 C145.991606,291.317187 151.365183,283.899707 150.101164,276.003293 C148.837146,268.12484 141.402798,262.742827 133.525146,264.000027 L91.7885634,270.67516 C90.6203944,262.437507 89.9314742,253.88256 89.9314742,244.92052 C89.9314742,212.454827 113.073202,129.4916 125.605559,96.9001867 C134.040338,74.9590533 141.822141,60.2797467 152.233822,42.9303867 C167.090535,61.7943733 192.820207,87.4711867 222.725333,87.4711867 C231.196056,87.4711867 241.589765,86.1122133 253.636883,84.5437067 C268.661333,82.58008 285.698629,80.35304 302.460357,80.35304 C323.30169,80.35304 344.11307,82.9153333 360.844845,84.9747467 C372.143136,86.3636533 381.063155,87.4711867 387.479099,87.4711867 C410.896394,87.4711867 438.015887,60.4653333 454.975305,40.33816 C456.598761,43.0201867 458.174291,45.6064267 459.725859,48.1268133 C469.364751,63.90168 476.996789,76.3539467 484.646798,95.60108 C497.113258,127.01312 521.087681,211.664587 521.087681,244.914533 C521.087681,254.4932 520.314892,263.592933 518.978986,272.333467 L466.770817,263.988053 C458.803305,262.70092 451.446836,268.100893 450.182817,275.99132 C448.918798,283.87576 454.304357,291.299227 462.188,292.5684 L512.005915,300.52468 C509.382028,308.055907 506.266911,315.25188 502.618629,322.028787 L466.770817,316.299547 C458.791324,315.030373 451.440845,320.412387 450.176826,328.296827 C448.912808,336.181267 454.298366,343.61072 462.176019,344.873907 L484.305333,348.418013 C443.545221,395.736627 374.347681,417.78552 305.509577,417.78552 L305.509577,417.78552 Z" id="Shape"></path>
                        </g>
                    </g>
                </g>
                <text id="product-seek" font-family="Montserrat-Regular, Montserrat" font-size="287.36" font-weight="normal" letter-spacing="-1.05599988">
                    <tspan x="700.243679" y="300">product seek</tspan>
                </text>
            </g>
        </g>
    </g>
</svg>