<?xml version="1.0" encoding="UTF-8"?>
<svg width="128px" height="96px" viewBox="0 0 128 96" version="1.1" xmlns="http://www.w3.org/2000/svg" xmlns:xlink="http://www.w3.org/1999/xlink">
    <!-- Generator: Sketch 3.8.1 (29687) - http://www.bohemiancoding.com/sketch -->
    <title>favicon</title>
    <desc>Created with Sketch.</desc>
    <defs></defs>
    <g id="Page-1" stroke="none" stroke-width="1" fill="none" fill-rule="evenodd">
        <g id="Artboard-3" transform="translate(-605.000000, -390.000000)">
            <g id="favicon" transform="translate(605.000000, 374.000000)">
                <g id="noun_18061_cc" transform="translate(0.000000, 16.426667)" fill="#F64763">
                    <g id="Group" transform="translate(-0.000000, 0.000000)">
                        <g>
                            <ellipse id="Oval" cx="45.4558848" cy="46.7937024" rx="5.61935224" ry="5.61565298"></ellipse>
                            <ellipse id="Oval" cx="84.8999802" cy="46.7937024" rx="5.61935224" ry="5.61565298"></ellipse>
                            <path d="M64.5210421,70.5309156 C64.5210421,70.5309156 74.1699185,66.2115755 74.1699185,60.8883911 C74.1699185,55.5652068 54.8772777,55.5652068 54.8772777,60.8883911 C54.8772777,66.2115755 64.5210421,70.5309156 64.5210421,70.5309156 Z" id="Shape"></path>
                            <path d="M125.331967,71.5973404 L113.493882,69.7071502 C114.205726,68.2205412 114.812775,66.6764601 115.331642,65.0902329 L124.356856,66.5346958 C124.522995,66.5615161 124.686579,66.5704562 124.850162,66.5704562 C126.341585,66.5704562 127.65281,65.4912597 127.894351,63.9727218 C128.165286,62.2907079 127.017645,60.7057579 125.334523,60.436278 L116.803894,59.0735531 C117.161733,56.8691826 117.349599,54.5932914 117.349599,52.2497109 C117.349599,43.5075812 111.520655,24.1178055 109.138469,18.1177287 C107.309655,13.5174144 105.473174,10.5186532 103.347865,7.04479004 C102.358695,5.43046542 101.297958,3.69736533 100.134981,1.62326471 C99.6199482,0.706267022 98.6755085,0.114944 97.6249951,0.0523633778 C96.5399757,-0.0268202667 95.5661421,0.466161778 94.9450356,1.31291591 C91.0842071,6.59906276 85.0942357,12.488027 82.6698757,12.488027 C81.6794281,12.488027 79.8557266,12.2632476 77.7431977,12.0027079 C74.0088909,11.5429319 69.3569823,10.9682119 64.5312661,10.9682119 C60.5554178,10.9682119 56.7099253,11.4714112 53.3155656,11.9145842 C50.9602173,12.2223787 48.9269243,12.488027 47.5224058,12.488027 C42.4308662,12.488027 36.6044785,4.67949796 34.9635305,1.94383076 C34.4088799,1.02044729 33.4133203,0.449558756 32.333413,0.443172978 C31.2074977,0.438064356 30.2528341,0.9885184 29.6854034,1.90551609 C26.0482244,7.78298596 23.6468682,11.6655388 21.0346426,18.4587292 C18.6358425,24.696357 13.0139343,43.7170347 13.0139343,52.2484338 C13.0139343,54.4642987 13.1877418,56.6188601 13.5072411,58.7133952 L2.74011743,60.4350009 C1.05699556,60.7019264 -0.0906456338,62.2881536 0.179011706,63.9714446 C0.420553114,65.4887054 1.7343339,66.569179 3.22447825,66.569179 C3.38550585,66.569179 3.55036745,66.5589618 3.71650704,66.5334187 L14.9181496,64.7428466 C15.4216804,66.3316281 16.0159489,67.8757092 16.7111792,69.3661497 L2.73500545,71.5973404 C1.05188357,71.8668203 -0.0957576213,73.4504932 0.172621721,75.1363385 C0.415441127,76.6523221 1.72794391,77.7340729 3.21808826,77.7340729 C3.38039387,77.7340729 3.54525546,77.7213013 3.71139505,77.6983125 L20.0007432,75.0941924 C28.7039018,87.603931 44.9229601,95.3039019 65.1766545,95.3039019 C85.2514294,95.3039019 101.365692,87.735478 110.12636,75.4211442 L124.358134,77.6957582 C124.524273,77.7225785 124.687857,77.7327957 124.85144,77.7327957 C126.342863,77.7327957 127.654088,76.651045 127.895629,75.1350613 C128.164008,73.4504932 127.015089,71.8668203 125.331967,71.5973404 L125.331967,71.5973404 Z M65.1753765,89.1275776 C50.3339989,89.1275776 35.4121074,84.3267499 26.7485666,74.0111644 L29.460476,73.5794859 C31.1448759,73.310006 32.2912391,71.7276103 32.0215817,70.041765 C31.7519244,68.3597511 30.1659303,67.2128654 28.4853644,67.4823452 L22.9554719,68.367414 C22.1950638,66.914011 21.5420074,65.3814244 20.9988587,63.7683769 L29.460476,62.4184235 C31.1448759,62.1476665 32.2912391,60.5652708 32.0215817,58.8807026 C31.7519244,57.1999659 30.1659303,56.051803 28.4853644,56.3200057 L19.5815602,57.7440341 C19.3323508,55.9866681 19.1853812,54.1616128 19.1853812,52.2497109 C19.1853812,45.3236964 24.1222831,27.6248747 26.7958525,20.6720398 C28.5952721,15.9912647 30.25539,12.8596793 32.4765486,9.15848249 C35.6459808,13.1827996 41.1349774,18.6605198 47.5147378,18.6605198 C49.3218254,18.6605198 51.5391499,18.3706055 54.1092016,18.0359908 C57.3144178,17.6170837 60.9490409,17.1419819 64.5248761,17.1419819 C68.9710272,17.1419819 73.4107884,17.6886044 76.9802336,18.127946 C79.3905357,18.424246 81.2934731,18.6605198 82.6622077,18.6605198 C87.6578975,18.6605198 93.4433893,12.8992711 97.0613984,8.60547413 C97.4077356,9.17763982 97.7438488,9.72937102 98.07485,10.2670535 C100.131147,13.6323584 101.759315,16.288842 103.391317,20.3948971 C106.050828,27.0961323 111.165372,45.1551118 111.165372,52.2484338 C111.165372,54.2918827 111.00051,56.2331591 110.715517,58.0978062 L99.5777743,56.3174514 C97.8780384,56.0428629 96.3086583,57.1948572 96.0390009,58.8781483 C95.7693436,60.5601621 96.9182628,62.143835 98.6001067,62.414592 L109.227929,64.1119317 C108.668166,65.7185934 108.003608,67.2537344 107.225308,68.6994745 L99.5777743,67.4772366 C97.8754824,67.2064796 96.3073803,68.3546425 96.0377229,70.0366564 C95.7680656,71.7186702 96.9169848,73.3036203 98.5975507,73.5731001 L103.318471,74.3291762 C94.6229804,84.4238137 79.8608386,89.1275776 65.1753765,89.1275776 L65.1753765,89.1275776 Z" id="Shape"></path>
                        </g>
                    </g>
                </g>
                <rect id="Rectangle-1" x="0" y="0" width="128" height="128"></rect>
            </g>
        </g>
    </g>
</svg>