<?xml version="1.0" ?><!DOCTYPE svg  PUBLIC '-//W3C//DTD SVG 1.1//EN'  'http://www.w3.org/Graphics/SVG/1.1/DTD/svg11.dtd'><svg enable-background="new 0 0 100 100" height="100px" id="Layer_1" version="1.1" viewBox="0 0 100 100" width="100px" xml:space="preserve" xmlns="http://www.w3.org/2000/svg" xmlns:xlink="http://www.w3.org/1999/xlink"><g><g><g><g/></g><g/></g></g><g><path d="M79,34v-3h-2c0-6-5-10.692-11-11.199V19.75c-1,0-2.5-1.318-2.502-3.062l-0.5-11.883   C62.827,2.086,60.724,0,58,0H40c-2.724,0-5.077,2.086-5.246,4.805L33.5,16.922c0,1.647-1.5,2.828-3.5,2.828v0.051   c-5,0.507-10,5.221-10,10.949v38c0,5.728,5,10.442,10,10.949v0.051c2,0,3.5,1.318,3.502,3.062l1,12.133   C34.673,97.664,37.276,100,40,100h18c2.724,0,5.077-2.336,5.246-5.055L63.5,82.703c0-1.647,1.5-2.953,2.5-2.953v-0.051   c6-0.507,10-5.221,10-10.949V68h0.15C76.7,68,77,67.485,77,66.936v-14C77,52.386,76.7,52,76.15,52H76v-7h3v-3h-2v-2h2v-1h-2v-2h2   v-1h-2v-2H79z M36.75,5.054C36.854,3.399,38.342,2,40,2h18c1.659,0,3.148,1.399,3.252,3.055L61.312,6h-24.62L36.75,5.054z    M36.567,8h24.869l0.313,5H36.257L36.567,8z M35.998,17.172L36.133,15h25.742L62,17c0,1.14,0.376,2,0.995,3H35.053   C35.644,19,35.999,18.234,35.998,17.172z M61.25,94.946C61.146,96.601,59.658,98,58,98H40c-1.659,0-3.148-1.399-3.252-3.055   L36.688,94h24.62L61.25,94.946z M61.433,92H36.563l-0.313-5h25.493L61.433,92z M62.002,82.828L61.867,85H36.125L36,83   c0-1.14-0.376-2-0.995-3h27.942C62.356,81,62.001,81.766,62.002,82.828z M74,69c0,4.971-4.029,9-9,9H31c-4.971,0-9-4.029-9-9V31   c0-4.971,4.029-9,9-9h34c4.971,0,9,4.029,9,9V69z" fill="#231F20"/><path d="M71,31c0-3.313-2.687-6-6-6H31c-3.313,0-6,2.687-6,6v38c0,3.313,2.687,6,6,6h34c3.313,0,6-2.687,6-6V31z    M54,31.75c2.761,0,5,2.238,5,5s-2.239,5-5,5s-5-2.238-5-5S51.239,31.75,54,31.75z M42,31.75c2.761,0,5,2.238,5,5s-2.239,5-5,5   s-5-2.238-5-5S39.239,31.75,42,31.75z M30,49.75c0-2.762,2.239-5,5-5s5,2.238,5,5s-2.239,5-5,5S30,52.512,30,49.75z M42,67.75   c-2.761,0-5-2.238-5-5s2.239-5,5-5s5,2.238,5,5S44.761,67.75,42,67.75z M43,49.75c0-2.762,2.239-5,5-5s5,2.238,5,5s-2.239,5-5,5   S43,52.512,43,49.75z M54,67.75c-2.761,0-5-2.238-5-5s2.239-5,5-5s5,2.238,5,5S56.761,67.75,54,67.75z M61,54.75   c-2.761,0-5-2.238-5-5s2.239-5,5-5s5,2.238,5,5S63.761,54.75,61,54.75z" fill="#231F20"/></g></svg>