<?xml version="1.0" ?><!DOCTYPE svg  PUBLIC '-//W3C//DTD SVG 1.1//EN'  'http://www.w3.org/Graphics/SVG/1.1/DTD/svg11.dtd'><svg height="32px" style="enable-background:new 0 0 32 32;" version="1.1" viewBox="0 0 32 32" width="32px" xml:space="preserve" xmlns="http://www.w3.org/2000/svg" xmlns:xlink="http://www.w3.org/1999/xlink"><g id="_x37__music_nodes"><path d="M26.857,4.773c-0.007-0.045-0.028-0.082-0.038-0.125v-0.23c-0.027-0.016-0.051-0.036-0.078-0.052   c-0.003-0.001-0.006-0.002-0.009-0.003c-0.197-0.458-0.577-0.754-0.973-0.695L12.817,5.6c-0.288,0.043-0.505,0.271-0.63,0.579   c-0.095,0.125-0.162,0.273-0.162,0.442v16.204c-0.731-0.466-1.668-0.758-2.704-0.758c-2.316,0-4.194,1.404-4.194,3.136   s1.878,3.136,4.194,3.136s4.194-1.404,4.194-3.136c0-0.013-0.006-0.023-0.006-0.036c0.001-0.009,0.006-0.016,0.006-0.024v-2.598   v-9.998V8.034l11.813-1.763v14.866c-0.731-0.466-1.668-0.758-2.704-0.758c-2.316,0-4.194,1.404-4.194,3.136   s1.878,3.136,4.194,3.136s4.194-1.404,4.194-3.136c0-0.013-0.006-0.023-0.006-0.036c0.001-0.009,0.006-0.016,0.006-0.024v-2.598   v-9.998V5.388C26.866,5.198,26.891,4.994,26.857,4.773z"/></g></svg>