<?xml version="1.0" ?><!DOCTYPE svg  PUBLIC '-//W3C//DTD SVG 1.1//EN'  'http://www.w3.org/Graphics/SVG/1.1/DTD/svg11.dtd'><svg enable-background="new 0 0 64 64" height="64px" id="Layer_1" version="1.1" viewBox="0 0 64 64" width="64px" xml:space="preserve" xmlns="http://www.w3.org/2000/svg" xmlns:xlink="http://www.w3.org/1999/xlink"><g><path d="M62.35,29.888l0.002-0.001l-15.037,5.176c-2.734,0.943-2.965-0.059-2.979-0.334v-4.253   c0-2.63-1.721-4.764-3.846-4.764H4.006c-2.124,0-3.847,2.134-3.847,4.764v27.358c0,2.629,1.723,4.762,3.847,4.762H40.49   c2.125,0,3.846-2.133,3.846-4.762v-2.873c0.012-0.225,0.227-1.008,2.77-0.404l15.529,3.699c0.561,0.176,1.207,0.135,1.207-1.016   V31.016C63.842,29.476,62.818,29.702,62.35,29.888z" fill="#241F20"/><circle cx="10.48" cy="11.724" fill="#241F20" r="10.32"/><circle cx="34.055" cy="11.724" fill="#241F20" r="10.32"/></g></svg>